<?xml version="1.0" encoding="utf-8"?>
<!-- Generator: Adobe Illustrator 25.0.0, SVG Export Plug-In . SVG Version: 6.00 Build 0)  -->
<svg version="1.1" id="Layer_1" xmlns="http://www.w3.org/2000/svg" xmlns:xlink="http://www.w3.org/1999/xlink" x="0px" y="0px"
	 viewBox="0 0 50 50" style="enable-background:new 0 0 50 50;" xml:space="preserve">
<g id="그룹_76" transform="translate(-520 -5064)">
	<g id="twitter" transform="translate(532 5029.651)">
		<g id="그룹_63" transform="translate(0 48)">
			<path id="패스_11" d="M30,2.9c-1.1,0.5-2.3,0.8-3.5,1c1.3-0.8,2.3-2,2.7-3.4C28,1.2,26.7,1.7,25.3,2c-2.3-2.5-6.2-2.6-8.7-0.3
				c-1.2,1.2-1.9,2.8-1.9,4.5c0,0.5,0,0.9,0.1,1.4C9.8,7.3,5.2,5,2.1,1.1C0.4,3.9,1.3,7.5,4,9.3C3,9.3,2.1,9,1.2,8.5v0.1
				c0,2.9,2.1,5.4,4.9,6c-0.5,0.1-1.1,0.2-1.6,0.2c-0.4,0-0.8,0-1.2-0.1C4.1,17.2,6.4,18.9,9,19c-2.2,1.7-4.9,2.6-7.6,2.6
				c-0.5,0-1,0-1.5-0.1c2.8,1.8,6.1,2.8,9.4,2.8c11.3,0,17.5-9.4,17.5-17.5c0-0.3,0-0.5,0-0.8C28.1,5.2,29.2,4.1,30,2.9z"/>
		</g>
	</g>
</g>
</svg>
